<svg id="Layer_1" data-name="Layer 1" xmlns="http://www.w3.org/2000/svg" viewBox="0 0 512 512"><title>fiverr-flat</title><path d="M499.29.6H253.7C112.16.6.3,107.9.3,249.44V495.05C.3,501,2.18,512,8.08,512H253.7c141.54,0,258-121,258-262.56V3.83C511.7-2.06,505.19.6,499.29.6Z" fill="#00a2f4"/><g id="g24732"><path id="path24730" d="M374.83,129a36.19,36.19,0,1,1-36.19-36.25A36.22,36.22,0,0,1,374.83,129Z" fill="#fff"/><path id="path24702" d="M106.91,412.83c-.19-.51-.32-13.08-.29-27.41l.07-26.61h28.56c-.26-38.11.26-76.77,0-114.88l-15.55-.1-14.87-.1-.51-27.35L103.8,189h31.44V172.73c0-38.15,22.73-61.22,62.08-71.1,24.12-4.93,37.19-3.46,61.76-2.9l.51,29.32.51,29.32H243.8c-25.16,0-32.52,6.1-32.58,23.73V189h164v169.8h27.41a23,23,0,0,0,0,3.8c.43,21.11-.2,25,0,50.22-.61.61-30.38-.09-65.6,0H273v-54H300.9V243.76c-25.91.3-66.56.15-89.68,0-1.77,43.5-1,63.11,0,115.06,10.38.39,20.76-.34,31.14,0l.51,27.54.51,26.48H175.32C137.89,412.83,107.1,413.35,106.91,412.83Z" fill="#fff"/></g></svg>